<svg xmlns="http://www.w3.org/2000/svg" width="25.012" height="25.012" viewBox="0 0 25.012 25.012">
  <path id="Tracciato_23" data-name="Tracciato 23" d="M15.006,2.5h0A12.506,12.506,0,0,0,2.5,15.006h0A12.506,12.506,0,0,0,15.006,27.512h0A12.506,12.506,0,0,0,27.512,15.006h0A12.506,12.506,0,0,0,15.006,2.5Zm6.148,13.6-4.739,4.739a1.489,1.489,0,0,1-2.106-2.106l2.277-2.256H9.909a1.485,1.485,0,1,1,0-2.97h6.645l-2.241-2.243A1.489,1.489,0,1,1,16.42,9.161L21.159,13.9a1.474,1.474,0,0,1,.429,1.106v.047A1.48,1.48,0,0,1,21.154,16.1Z" transform="translate(27.512 27.512) rotate(180)"/>
</svg>
