<svg xmlns="http://www.w3.org/2000/svg" xmlns:xlink="http://www.w3.org/1999/xlink" width="28" height="28" viewBox="0 0 28 28">
  <defs>
    <clipPath id="clip-path">
      <rect id="Rettangolo_549" data-name="Rettangolo 549" width="28" height="28" transform="translate(343 810)"  fill="#9d9d9d"/>
    </clipPath>
  </defs>
  <g id="Gruppo_di_maschere_24" data-name="Gruppo di maschere 24" transform="translate(-343 -810)" clip-path="url(#clip-path)">
    <g id="XMLID_520_" transform="translate(343 810)">
      <path id="XMLID_521_" d="M.567,14.88l2.015,3.49a1.008,1.008,0,0,0,1.2.451l2.965-1a8.048,8.048,0,0,0,.813.471l.614,3.068a1.008,1.008,0,0,0,.988.81h4.03a1.008,1.008,0,0,0,.988-.81l.614-3.068a8.06,8.06,0,0,0,.813-.471l2.965,1a1.008,1.008,0,0,0,1.2-.451l2.015-3.49a1.008,1.008,0,0,0-.207-1.261L19.22,11.553c.009-.157.014-.313.014-.469s0-.313-.014-.469l2.352-2.067a1.008,1.008,0,0,0,.207-1.261L19.764,3.8a1.008,1.008,0,0,0-1.2-.451l-2.965,1a8.04,8.04,0,0,0-.813-.471L14.177.81A1.008,1.008,0,0,0,13.189,0H9.158A1.008,1.008,0,0,0,8.17.81L7.557,3.878a8.06,8.06,0,0,0-.813.471l-2.965-1a1.008,1.008,0,0,0-1.2.451L.567,7.287A1.008,1.008,0,0,0,.775,8.547l2.352,2.067c-.009.156-.014.313-.014.469s0,.313.014.469L.775,13.619A1.008,1.008,0,0,0,.567,14.88ZM11.173,7.053a4.03,4.03,0,1,1-4.03,4.03A4.035,4.035,0,0,1,11.173,7.053Z" transform="translate(2.827 2.917)"/>
    </g>
  </g>
</svg>
